<svg width="85" viewBox="0 0 34 15" fill="none" xmlns="http://www.w3.org/2000/svg">
<path d="M0.884943 11V0.818182H3.03764V9.22514H7.4027V11H0.884943ZM12.2388 11.1491C11.4666 11.1491 10.7987 10.9851 10.2353 10.657C9.67513 10.3255 9.2426 9.86482 8.93768 9.27486C8.63275 8.68158 8.48029 7.99384 8.48029 7.21165C8.48029 6.42282 8.63275 5.73343 8.93768 5.14347C9.2426 4.55019 9.67513 4.08949 10.2353 3.76136C10.7987 3.42992 11.4666 3.2642 12.2388 3.2642C13.0111 3.2642 13.6773 3.42992 14.2374 3.76136C14.8008 4.08949 15.235 4.55019 15.54 5.14347C15.8449 5.73343 15.9973 6.42282 15.9973 7.21165C15.9973 7.99384 15.8449 8.68158 15.54 9.27486C15.235 9.86482 14.8008 10.3255 14.2374 10.657C13.6773 10.9851 13.0111 11.1491 12.2388 11.1491ZM12.2488 9.50852C12.6001 9.50852 12.8934 9.40909 13.1287 9.21023C13.3641 9.00805 13.5414 8.73295 13.6607 8.38494C13.7833 8.03693 13.8446 7.64086 13.8446 7.19673C13.8446 6.7526 13.7833 6.35653 13.6607 6.00852C13.5414 5.66051 13.3641 5.38542 13.1287 5.18324C12.8934 4.98106 12.6001 4.87997 12.2488 4.87997C11.8941 4.87997 11.5958 4.98106 11.3539 5.18324C11.1152 5.38542 10.9346 5.66051 10.812 6.00852C10.6926 6.35653 10.633 6.7526 10.633 7.19673C10.633 7.64086 10.6926 8.03693 10.812 8.38494C10.9346 8.73295 11.1152 9.00805 11.3539 9.21023C11.5958 9.40909 11.8941 9.50852 12.2488 9.50852ZM20.8148 14.0227C20.1287 14.0227 19.5404 13.9283 19.0499 13.7393C18.5627 13.5537 18.1749 13.3002 17.8865 12.9787C17.5982 12.6572 17.4109 12.2959 17.3248 11.8949L19.2836 11.6314C19.3432 11.7839 19.4377 11.9264 19.5669 12.0589C19.6962 12.1915 19.8669 12.2976 20.079 12.3771C20.2944 12.46 20.5563 12.5014 20.8645 12.5014C21.3252 12.5014 21.7047 12.3887 22.003 12.1634C22.3046 11.9413 22.4554 11.5684 22.4554 11.0447V9.64773H22.3659C22.2731 9.85985 22.1339 10.0604 21.9483 10.2493C21.7627 10.4382 21.5241 10.5923 21.2324 10.7116C20.9408 10.831 20.5927 10.8906 20.1884 10.8906C19.615 10.8906 19.093 10.758 18.6223 10.4929C18.155 10.2244 17.7821 9.8151 17.5037 9.26491C17.2286 8.71141 17.0911 8.01207 17.0911 7.1669C17.0911 6.30185 17.2319 5.57931 17.5137 4.99929C17.7954 4.41927 18.1699 3.98509 18.6373 3.69673C19.1079 3.40838 19.6233 3.2642 20.1834 3.2642C20.611 3.2642 20.9689 3.33712 21.2573 3.48295C21.5456 3.62547 21.7776 3.80445 21.9533 4.01989C22.1323 4.23201 22.2698 4.44081 22.3659 4.64631H22.4455V3.36364H24.5485V11.0746C24.5485 11.7242 24.3894 12.2678 24.0712 12.7053C23.753 13.1428 23.3122 13.4709 22.7488 13.6896C22.1886 13.9117 21.544 14.0227 20.8148 14.0227ZM20.8596 9.29972C21.2009 9.29972 21.4893 9.2152 21.7246 9.04616C21.9632 8.87382 22.1455 8.62855 22.2715 8.31037C22.4007 7.98887 22.4654 7.6044 22.4654 7.15696C22.4654 6.70952 22.4024 6.32173 22.2765 5.99361C22.1505 5.66217 21.9682 5.4053 21.7296 5.22301C21.4909 5.04072 21.2009 4.94957 20.8596 4.94957C20.5115 4.94957 20.2182 5.04403 19.9796 5.23295C19.7409 5.41856 19.5603 5.67708 19.4377 6.00852C19.315 6.33996 19.2537 6.72277 19.2537 7.15696C19.2537 7.59777 19.315 7.97893 19.4377 8.30043C19.5636 8.61861 19.7443 8.86553 19.9796 9.04119C20.2182 9.21354 20.5115 9.29972 20.8596 9.29972ZM29.6841 11.1491C28.9119 11.1491 28.244 10.9851 27.6806 10.657C27.1204 10.3255 26.6879 9.86482 26.383 9.27486C26.0781 8.68158 25.9256 7.99384 25.9256 7.21165C25.9256 6.42282 26.0781 5.73343 26.383 5.14347C26.6879 4.55019 27.1204 4.08949 27.6806 3.76136C28.244 3.42992 28.9119 3.2642 29.6841 3.2642C30.4564 3.2642 31.1226 3.42992 31.6827 3.76136C32.2462 4.08949 32.6803 4.55019 32.9853 5.14347C33.2902 5.73343 33.4426 6.42282 33.4426 7.21165C33.4426 7.99384 33.2902 8.68158 32.9853 9.27486C32.6803 9.86482 32.2462 10.3255 31.6827 10.657C31.1226 10.9851 30.4564 11.1491 29.6841 11.1491ZM29.6941 9.50852C30.0454 9.50852 30.3387 9.40909 30.574 9.21023C30.8094 9.00805 30.9867 8.73295 31.106 8.38494C31.2286 8.03693 31.29 7.64086 31.29 7.19673C31.29 6.7526 31.2286 6.35653 31.106 6.00852C30.9867 5.66051 30.8094 5.38542 30.574 5.18324C30.3387 4.98106 30.0454 4.87997 29.6941 4.87997C29.3394 4.87997 29.0411 4.98106 28.7992 5.18324C28.5605 5.38542 28.3799 5.66051 28.2573 6.00852C28.138 6.35653 28.0783 6.7526 28.0783 7.19673C28.0783 7.64086 28.138 8.03693 28.2573 8.38494C28.3799 8.73295 28.5605 9.00805 28.7992 9.21023C29.0411 9.40909 29.3394 9.50852 29.6941 9.50852Z" fill="#585874"/>
</svg>
